<?xml version="1.0" encoding="utf-8"?>
<!-- Generator: Adobe Illustrator 22.1.0, SVG Export Plug-In . SVG Version: 6.00 Build 0)  -->
<svg version="1.1" id="akroma-awesome" xmlns="http://www.w3.org/2000/svg" xmlns:xlink="http://www.w3.org/1999/xlink" x="0px"
	 y="0px" viewBox="0 0 597.3 650.4" style="enable-background:new 0 0 597.3 650.4;" xml:space="preserve">
<style type="text/css">
	.st0{fill:#FC60A8;}
	.st1{fill:#494368;}
	.st2{fill:#CCCCCC;}
	.st3{fill:#E6E6E6;}
	.st4{fill:#FFFFFF;}
	.st5{fill:#AA0087;}
	.st6{fill:#C2009D;}
	.st7{fill:#930077;}
	.st8{fill:#F10000;}
	.st9{fill:#CF0000;}
	.st10{fill:#AF0000;}
	.st11{fill:#FFA600;}
	.st12{fill:#F17100;}
	.st13{fill:#E25D00;}
	.st14{fill:url(#gradient_1_);}
</style>
<g id="logo">
	<path id="sunglasses" class="st0" d="M585,303.3L435,165.8l-21.1,23L539,303.3H46l125-115l-21-22L0.1,303.3H0v91
		c0,41,39.5,74,88,74h93c48.5,0,88-33,88-74v-60h48v60c0,41,39.5,74,88,74h92c48.5,0,88-33,88-74V303.3L585,303.3z"/>
	<path id="text" class="st1" d="M50.7,586.4c4,0,7.3,1.4,10.1,4.2s4.2,6.2,4.2,10.1v49.6H14.3c-4,0-7.3-1.4-10.1-4.2
		C1.4,643.3,0,639.9,0,636v-23.6h53.1v-11.7c0-0.7-0.2-1.2-0.7-1.7s-1-0.7-1.7-0.7H0v-11.9H50.7L50.7,586.4z M53.1,638.4v-14.1H11.9
		V636c0,0.7,0.2,1.2,0.7,1.7s1,0.7,1.7,0.7H53.1L53.1,638.4z M167.8,586.4h12.7l-24,63.9h-9.7l-21.5-47.5L105,650.3l-0.2-0.1
		l0.1,0.1h-9.6l-25.1-63.9h12.6l17.3,42.4l18.4-42.4h13.6l19.5,42.4L167.8,586.4L167.8,586.4z M235,586.4c4,0,7.3,1.4,10.1,4.2
		c2.8,2.8,4.2,6.2,4.2,10.1v23.6h-53.1V636c0,0.7,0.2,1.2,0.7,1.7s1,0.7,1.7,0.7h50.7v11.9h-50.7c-4,0-7.3-1.4-10.1-4.2
		c-2.8-2.8-4.2-6.2-4.2-10.1v-35.3c0-4,1.4-7.3,4.2-10.1c2.8-2.8,6.2-4.2,10.1-4.2H235L235,586.4z M196.2,612.4h41.2v-11.7
		c0-0.7-0.2-1.2-0.7-1.7s-1-0.7-1.7-0.7h-36.4c-0.7,0-1.2,0.2-1.7,0.7s-0.7,1-0.7,1.7V612.4z M325.2,600.8v2.4h-11.9v-2.4
		c0-0.7-0.2-1.2-0.7-1.7s-1-0.7-1.7-0.7h-36.4c-0.7,0-1.2,0.2-1.7,0.7s-0.7,1-0.7,1.7v9.3c0,0.7,0.2,1.2,0.7,1.7s1,0.7,1.7,0.7h36.4
		c4,0,7.3,1.4,10.1,4.2s4.2,6.2,4.2,10.1v9.3c0,4-1.4,7.3-4.2,10.1c-2.8,2.8-6.2,4.2-10.1,4.2h-36.4c-4,0-7.3-1.4-10.1-4.2
		c-2.8-2.8-4.2-6.2-4.2-10.1v-2.4h11.9v2.4c0,0.7,0.2,1.2,0.7,1.7s1,0.7,1.7,0.7h36.4c0.7,0,1.2-0.2,1.7-0.7s0.7-1,0.7-1.7v-9.3
		c0-0.7-0.2-1.2-0.7-1.7s-1-0.7-1.7-0.7h-36.4c-4,0-7.3-1.4-10.1-4.2c-2.8-2.8-4.2-6.2-4.2-10.1v-9.3c0-4,1.4-7.3,4.2-10.1
		c2.8-2.8,6.2-4.2,10.1-4.2h36.4c4,0,7.3,1.4,10.1,4.2C323.8,593.4,325.2,596.8,325.2,600.8L325.2,600.8z M350.4,586.4h36.4
		c4,0,7.3,1.4,10.1,4.2s4.2,6.2,4.2,10.1V636c0,4-1.4,7.3-4.2,10.1c-2.8,2.8-6.2,4.2-10.1,4.2h-36.4c-4,0-7.3-1.4-10.1-4.2
		c-2.8-2.8-4.2-6.2-4.2-10.1v-35.3c0-4,1.4-7.3,4.2-10.1C343.1,587.8,346.5,586.4,350.4,586.4L350.4,586.4z M386.8,598.3h-36.4
		c-0.7,0-1.2,0.2-1.7,0.7s-0.7,1-0.7,1.7V636c0,0.7,0.2,1.2,0.7,1.7s1,0.7,1.7,0.7h36.4c0.7,0,1.2-0.2,1.7-0.7s0.7-1,0.7-1.7v-35.3
		c0-0.7-0.2-1.2-0.7-1.7C388,598.6,387.5,598.3,386.8,598.3L386.8,598.3z M494.3,586.4c4,0,7.3,1.4,10.1,4.2s4.2,6.2,4.2,10.1v49.6
		h-11.8v-49.6c0-0.7-0.2-1.2-0.7-1.7s-1.1-0.7-1.8-0.7h-25.2c-0.7,0-1.2,0.2-1.7,0.7s-0.7,1-0.7,1.7v49.6h-11.9v-49.6
		c0-0.7-0.2-1.2-0.7-1.7s-1-0.7-1.7-0.7h-25.3c-0.7,0-1.2,0.2-1.7,0.7s-0.7,1-0.7,1.7v49.6h-11.9v-63.9H494.3L494.3,586.4z
		 M570.8,586.4c4,0,7.3,1.4,10.1,4.2c2.8,2.8,4.2,6.2,4.2,10.1v23.6H532V636c0,0.7,0.2,1.2,0.7,1.7s1,0.7,1.7,0.7h50.7v11.9h-50.7
		c-4,0-7.3-1.4-10.1-4.2c-2.8-2.8-4.2-6.2-4.2-10.1v-35.3c0-4,1.4-7.3,4.2-10.1c2.8-2.8,6.2-4.2,10.1-4.2H570.8L570.8,586.4z
		 M532,612.4h41.2v-11.7c0-0.7-0.2-1.2-0.7-1.7s-1-0.7-1.7-0.7h-36.4c-0.7,0-1.2,0.2-1.7,0.7s-0.7,1-0.7,1.7V612.4L532,612.4z"/>
	<g id="tile_8_">
		<g id="white_5_">
			<polygon class="st2" points="49.2,0 30.9,28.1 112.8,486.9 142.9,452 62.2,14.1 			"/>
			<polygon class="st3" points="112.8,486.9 575.3,568.8 597.3,548 577.2,532.8 146.6,447.1 			"/>
			<polygon class="st4" points="49.2,0 446.8,139.5 597.3,548 134.9,461.2 			"/>
		</g>
		<g id="purple_5_">
			<polygon class="st5" points="533.1,474 542.9,491.2 537.3,499.8 172.8,426.2 95.7,42.8 102.5,59.3 166.2,81.3 227.3,370.1 
				516,438.6 			"/>
			<polygon class="st6" points="176.8,71.5 175.9,76.5 163.8,83 99.4,61.2 95.7,42.8 			"/>
			<polygon class="st7" points="176.8,71.5 163.8,83 226,372.8 233.4,372.5 244.4,360.3 243,356 			"/>
			<polygon class="st6" points="525.7,422.1 525.8,430 518.5,441 514.5,440.8 226,372.8 243,356 			"/>
			<polygon class="st7" points="525.7,422.1 514.5,440.8 534.7,499.3 555.8,503.6 			"/>
		</g>
		<g id="red_5_">
			<polygon class="st8" points="328.6,270.8 282.4,121.7 224.4,88.4 279.9,318.7 495.7,373 500.1,370.1 475.7,311.3 			"/>
			<g>
				<polygon class="st9" points="290.3,111.9 289.7,116.8 283.6,125.4 281,123.5 228.4,105.3 224.4,88.4 				"/>
				<polygon class="st10" points="323.5,275.9 281,123.5 290.3,111.9 334.6,263.7 336.2,266.1 				"/>
				<polygon class="st9" points="323.5,275.9 473.7,314.1 475.7,317.4 483,307.7 482.2,302.5 334.6,263.7 				"/>
				<polygon class="st10" points="494.5,372.8 473.7,314.1 482.2,302.5 507.8,375.9 				"/>
			</g>
		</g>
		<g id="gold_5_">
			<path class="st11" d="M419.4,169.4l-75.8-26.9l-3.7-1.3l25.7,93.1l84,22.4l-2.1-8.9l-26.9-77.1L419.4,169.4z"/>
			<path class="st12" d="M430.4,160.9l-94.2-33l3.7,14.7l78.3,28.1l4.9,1.2l6.1-6.1L430.4,160.9z"/>
			<polygon class="st13" points="430.4,160.9 418.2,170.7 448.7,256.3 465.9,261.2 			"/>
		</g>
	</g>
	<linearGradient id="gradient_1_" gradientUnits="userSpaceOnUse" x1="354.6825" y1="48.0213" x2="276.1089" y2="512.5762">
		<stop  offset="1.027961e-03" style="stop-color:#000000;stop-opacity:4.000000e-02"/>
		<stop  offset="1" style="stop-color:#000000;stop-opacity:5.000000e-02"/>
	</linearGradient>
	<polygon id="gradient" class="st14" points="446.8,139.5 49.2,0 30.9,28.1 112.8,486.9 575.3,568.8 597.3,548 	"/>
	<path id="sunglasses_1_" class="st0" d="M585,303.3h-46H46l-45.9,0H0v91c0,41,39.5,74,88,74h93c48.5,0,88-33,88-74v-60h48v60
		c0,41,39.5,74,88,74h92c48.5,0,88-33,88-74V303.3L585,303.3z"/>
</g>
</svg>
